<?xml version="1.0" encoding="UTF-8"?>
<svg width="142px" height="142px" viewBox="0 0 142 142" version="1.1" xmlns="http://www.w3.org/2000/svg" xmlns:xlink="http://www.w3.org/1999/xlink">
    <title>Group 3</title>
    <defs>
        <linearGradient x1="44.7346696%" y1="0%" x2="47.3015989%" y2="81.8809744%" id="linearGradient-1">
            <stop stop-color="#8153FC" offset="0%"></stop>
            <stop stop-color="#6070FB" offset="100%"></stop>
        </linearGradient>
    </defs>
    <g id="小程序-个人中心" stroke="none" stroke-width="1" fill="none" fill-rule="evenodd">
        <g id="个人中心-未登录" transform="translate(-29, -149)">
            <g id="Group-3" transform="translate(30, 150)">
                <g id="编组-2">
                    <circle id="Oval" stroke="#F4F4F4" fill="#FFFFFF" cx="70" cy="70" r="70"></circle>
                    <g id="morentouxiang-2" fill-rule="nonzero">
                        <g id="morentouxiang">
                            <path d="M70,0 C31.3409056,0 0,31.3409056 0,70 C0,108.659094 31.3409056,140 70,140 C108.659094,140 140,108.660657 140,70 C140,31.3393434 108.660657,0 70,0 Z M69.1190057,26.0861803 C82.0636869,26.0861803 92.5950059,36.4612947 92.5950059,49.2169683 C92.5950059,61.9726419 82.0636869,72.3508803 69.1190057,72.3508803 C56.1743245,72.3508803 45.6445674,61.9726419 45.6445674,49.2200924 C45.6445674,36.467543 56.1758865,26.0861803 69.1190057,26.0861803 Z M108.437284,105.497512 C108.437284,113.910696 94.7006449,113.910696 78.7943231,113.910696 L61.2041149,113.910696 C44.6464196,113.910696 31.5642782,113.910696 31.5642782,105.497512 L31.5642782,103.765202 C31.5642782,87.6761208 44.8588578,74.578359 61.2041149,74.578359 L78.7943231,74.578359 C95.13958,74.578359 108.437284,87.6729968 108.437284,103.765202 L108.437284,105.497512 Z" id="形状" fill="#F4F2FE"></path>
                            <path d="M80.6807552,72 L60.315628,72 C41.3918478,72 26,87.3108022 26,106.134631 L26,108.160604 C26,118 41.1458965,118 60.315628,118 L80.6807552,118 C99.0963568,118 115,118 115,108.160604 L115,106.134631 C115,87.3144559 99.6045354,72 80.6807552,72 Z M68.9991018,72 C83.887414,72 96,60.3404686 96,46.0017558 C96,31.6630431 83.887414,20 68.9991018,20 C54.1107896,20 42,31.6683098 42,46.0017558 C42,60.3352018 54.112586,72 68.9991018,72 Z" id="形状" fill="#FFFFFF"></path>
                        </g>
                    </g>
                </g>
                <g id="编组" transform="translate(10, 10)" fill-rule="nonzero">
                    <g id="morentouxiang-4" fill="url(#linearGradient-1)">
                        <path d="M60,120 C26.8583753,120 0,93.1416248 0,60 C0,26.8583754 26.8583753,0 60,0 C93.1416247,0 120,26.8583752 120,60 C120,93.1416249 93.1416247,120 60,120 Z" id="路径"></path>
                    </g>
                    <g id="morentouxiang-3" transform="translate(14, 13.093)">
                        <polygon id="路径" fill-opacity="0" fill="#000000" points="0 0 93 0 93 92.9066889 0 92.9066889"></polygon>
                        <path d="M59.4916582,71.9714256 C65.3323671,76.0349831 68.8071391,82.7014732 68.790624,89.8118659 C68.799006,90.6352025 68.47531,91.4272574 67.8925083,92.0094743 C67.3097065,92.5916913 66.5168561,92.9150624 65.6926926,92.9068475 C64.8685292,92.9150624 64.0756788,92.5916912 63.4928771,92.0094743 C62.9100754,91.4272573 62.5863795,90.6352025 62.5947614,89.8118659 C62.5947614,81.2662279 55.6489823,74.3274178 47.0947614,74.3274178 C38.5405405,74.3274178 31.5947614,81.2662279 31.5947614,89.8118659 C31.6003318,90.6352549 31.2750202,91.4264593 30.6917122,92.0082107 C30.1084043,92.5899622 29.3158638,92.9136271 28.4916582,92.9068475 C27.6674948,92.9150624 26.8746444,92.5916912 26.2918427,92.0094743 C25.709041,91.4272573 25.3853451,90.6352025 25.393727,89.8118659 C25.393727,82.8730558 28.7399066,76.3114112 34.3203203,72.3434244 C14.9776443,65.6526134 4.68568556,44.469351 11.3780448,25.0220828 C18.0755757,5.69881421 39.1559893,-4.58281813 58.6227895,2.10282631 C78.0895897,8.78847075 88.3815482,29.9768997 81.6891892,49.3001683 C77.9654655,59.8297997 69.9077412,68.1326052 59.4916582,71.9714256 L59.4916582,71.9714256 Z M46.4689689,6.18964586 C29.3553552,6.18964586 15.4689689,20.0620993 15.4689689,37.1585421 C15.4689689,54.254985 29.3553552,68.1274384 46.4689689,68.1274384 C63.5825826,68.1274384 77.4689689,54.254985 77.4689689,37.1585421 C77.4689689,20.0620993 63.5825826,6.18964586 46.4689689,6.18964586 Z" id="形状" fill="#FFFFFF"></path>
                        <path d="M58.1262929,52.1521586 C51.304638,56.4869775 42.6262929,56.3629778 35.804638,51.9041595 C34.3151485,50.9121629 33.9427761,48.9333361 34.8116451,47.4453411 C35.680514,45.957346 37.4182517,45.4613476 38.9025692,46.3293448 L39.0266934,46.4533444 C43.8623625,49.5481674 50.0633967,49.672167 54.8990658,46.5773441 C55.5676634,46.1458422 56.3843541,46.0077003 57.1578771,46.1952697 C57.9314001,46.3828391 58.5938147,46.8796451 58.9899899,47.5693407 L59.1141141,47.6933403 C59.9881548,49.3001683 59.4916582,51.2841617 58.1262929,52.1521586 L58.1262929,52.1521586 Z" id="路径" fill="#FEDE4D"></path>
                    </g>
                </g>
            </g>
        </g>
    </g>
</svg>