<?xml version="1.0" encoding="UTF-8"?>
<svg width="44px" height="44px" viewBox="0 0 44 44" version="1.1" xmlns="http://www.w3.org/2000/svg" xmlns:xlink="http://www.w3.org/1999/xlink">
    <title>Shape</title>
    <g id="小程序-商品订单" stroke="none" stroke-width="1" fill="none" fill-rule="evenodd">
        <g id="商品订单（虚拟产品）-订单详情-查看券码-多张券码样式" transform="translate(-624, -896)" fill="#6E63FB" fill-rule="nonzero">
            <g id="列表-/-双行-copy-3" transform="translate(30, 847)">
                <g id="Group-13" transform="translate(572, 27)">
                    <g id="erweima" transform="translate(22, 22)">
                        <path d="M5.07692308,0 L14.5538462,0 C17.2615385,0 19.6307692,2.36923077 19.6307692,5.07692308 L19.6307692,14.5538462 C19.6307692,17.2615385 17.2615385,19.6307692 14.5538462,19.6307692 L5.07692308,19.6307692 C2.36923077,19.6307692 0,17.2615385 0,14.5538462 L0,5.07692308 C0,2.03076923 2.03076923,0 5.07692308,0 Z M5.07692308,3.38461538 C4.06153846,3.38461538 3.38461538,4.06153846 3.38461538,5.07692308 L3.38461538,14.5538462 C3.38461538,15.2307692 4.06153846,16.2461538 5.07692308,16.2461538 L14.5538462,16.2461538 C15.2307692,16.2461538 16.2461538,15.2307692 16.2461538,14.5538462 L16.2461538,5.07692308 C16.2461538,4.06153846 15.5692308,3.38461538 14.5538462,3.38461538 L5.07692308,3.38461538 Z M5.07692308,24.3692308 L14.5538462,24.3692308 C17.2615385,24.3692308 19.6307692,26.7384615 19.6307692,29.4461538 L19.6307692,38.9230769 C19.6307692,41.6307692 17.2615385,44 14.5538462,44 L5.07692308,44 C2.36923077,44 0,41.6307692 0,38.9230769 L0,29.4461538 C0,26.7384615 2.03076923,24.3692308 5.07692308,24.3692308 Z M5.07692308,27.7538462 C4.06153846,27.7538462 3.38461538,28.4307692 3.38461538,29.4461538 L3.38461538,38.9230769 C3.38461538,39.9384615 4.06153846,40.6153846 5.07692308,40.6153846 L14.5538462,40.6153846 C15.5692308,40.6153846 16.2461538,39.9384615 16.2461538,38.9230769 L16.2461538,29.4461538 C16.2461538,28.4307692 15.5692308,27.7538462 14.5538462,27.7538462 L5.07692308,27.7538462 Z M26.0615385,24.3692308 L42.3076923,24.3692308 C43.3230769,24.3692308 44,25.0461538 44,26.0615385 C44,27.0769231 43.3230769,27.7538462 42.3076923,27.7538462 L26.0615385,27.7538462 C25.0461538,27.7538462 24.3692308,27.0769231 24.3692308,26.0615385 C24.3692308,25.0461538 25.0461538,24.3692308 26.0615385,24.3692308 Z M24.3692308,42.3076923 L24.3692308,33.5076923 C24.3692308,32.4923077 25.0461538,31.8153846 26.0615385,31.8153846 C27.0769231,31.8153846 27.7538462,32.4923077 27.7538462,33.5076923 L27.7538462,42.3076923 C27.7538462,43.3230769 27.0769231,44 26.0615385,44 C25.0461538,44 24.3692308,43.3230769 24.3692308,42.3076923 Z M31.8153846,38.9230769 L31.8153846,33.8461538 C31.8153846,32.8307692 32.4923077,32.1538462 33.5076923,32.1538462 C34.5230769,32.1538462 35.2,32.8307692 35.2,33.8461538 L35.2,38.9230769 C35.2,39.9384615 34.5230769,40.6153846 33.5076923,40.6153846 C32.4923077,40.6153846 31.8153846,39.6 31.8153846,38.9230769 Z M39.2615385,40.6153846 L39.2615385,33.5076923 C39.2615385,32.4923077 39.9384615,31.8153846 40.9538462,31.8153846 C41.9692308,31.8153846 42.6461538,32.4923077 42.6461538,33.5076923 L42.6461538,40.6153846 C42.6461538,41.6307692 41.9692308,42.3076923 40.9538462,42.3076923 C39.9384615,42.3076923 39.2615385,41.6307692 39.2615385,40.6153846 Z M29.4461538,3.38461538 C28.4307692,3.38461538 27.7538462,4.06153846 27.7538462,5.07692308 L27.7538462,14.5538462 C27.7538462,15.5692308 28.4307692,16.2461538 29.4461538,16.2461538 L38.9230769,16.2461538 C39.9384615,16.2461538 40.6153846,15.5692308 40.6153846,14.5538462 L40.6153846,5.07692308 C40.6153846,4.06153846 39.9384615,3.38461538 38.9230769,3.38461538 L29.4461538,3.38461538 Z M29.4461538,0 L38.9230769,0 C41.6307692,0 44,2.36923077 44,5.07692308 L44,14.5538462 C44,17.2615385 41.6307692,19.6307692 38.9230769,19.6307692 L29.4461538,19.6307692 C26.7384615,19.6307692 24.3692308,17.2615385 24.3692308,14.5538462 L24.3692308,5.07692308 C24.3692308,2.03076923 26.7384615,0 29.4461538,0 Z" id="Shape"></path>
                    </g>
                </g>
            </g>
        </g>
    </g>
</svg>