<?xml version="1.0" encoding="UTF-8"?>
<svg width="40px" height="40px" viewBox="0 0 40 40" version="1.1" xmlns="http://www.w3.org/2000/svg" xmlns:xlink="http://www.w3.org/1999/xlink">
    <title>express-delivered 2</title>
    <g id="小程序-商家管理" stroke="none" stroke-width="1" fill="none" fill-rule="evenodd">
        <g id="商家管理-商品订单管理" transform="translate(-318, -1968)" fill="#FFFFFF" fill-rule="nonzero">
            <g id="按钮-/-面型-/-常规-/-大" transform="translate(60, 1942)">
                <g id="express-delivered" transform="translate(258, 26)">
                    <path d="M1.43122293,11.4285824 L17.1444284,11.4285824 C17.9333524,11.4285824 18.5729016,10.7889782 18.5729016,10 L18.5729016,1.42857143 C18.5729016,0.639593215 17.9333524,0 17.1444284,0 L8.57358905,0 C8.14971442,0.000158949956 7.74780137,0.188568645 7.47652161,0.514285714 L0.334155489,9.08571429 C-0.0230145342,9.51083073 -0.100895131,10.1046533 0.134570629,10.6075054 C0.370036389,11.1103575 0.876006902,11.4307481 1.43122293,11.4285824 L1.43122293,11.4285824 Z M22.8583213,11.4285714 L38.5715268,11.4285714 C39.1256409,11.4283637 39.6296458,11.1076993 39.8646424,10.6058491 C40.0996391,10.1039989 40.0232273,9.51151091 39.6685942,9.08571429 L32.5262281,0.514285714 C32.2549483,0.188568645 31.8530353,0.000158949956 31.4291607,0 L22.8583213,0 C22.0693973,0 21.4298481,0.639593215 21.4298481,1.42857143 L21.4298481,10 C21.4298481,10.7889782 22.0693973,11.4285714 22.8583213,11.4285714 Z M30.0006874,20 C24.4782196,20 20.0013749,24.4771525 20.0013749,30 C20.0013749,35.5228475 24.4782196,40 30.0006874,40 C35.5231553,40 40,35.5228475 40,30 C40,24.4771525 35.5231553,20 30.0006874,20 Z M36.320253,30.5457143 C36.2498207,30.7208446 36.1437781,30.8794331 36.0088458,31.0114286 L31.7262831,35.2942857 C31.4590436,35.5643907 31.0948762,35.7163758 30.714924,35.7163758 C30.3349719,35.7163758 29.9708045,35.5643907 29.703565,35.2942857 C29.1459148,34.7364288 29.1459148,33.8321426 29.703565,33.2742857 L31.5520093,31.4285714 L25.0010311,31.4285714 C24.2121072,31.4285714 23.5725579,30.7889782 23.5725579,30 C23.5725579,29.2110218 24.2121072,28.5714286 25.0010311,28.5714286 L31.5520093,28.5714286 L29.7064219,26.7257143 C29.1650703,26.165173 29.1728124,25.2741646 29.7238228,24.7231163 C30.2748332,24.172068 31.1657803,24.1643254 31.7262831,24.7057143 L36.0088458,28.9885714 C36.4146058,29.3986761 36.537079,30.0110838 36.320253,30.5457143 L36.320253,30.5457143 Z" id="形状"></path>
                    <path d="M38.5715268,14.2857143 L1.43122293,14.2857143 C0.642298948,14.2857143 0.00274970122,14.9253075 0.00274970122,15.7142857 L0.00274970122,37.1428571 C0.00274970122,38.7171429 1.28266171,40 2.85969615,40 L22.0098082,40 C19.0671534,37.6428571 17.1444284,34.0628571 17.1444284,30 C17.1444284,22.8991961 22.9003716,17.1428571 30.0006874,17.1428571 C34.0632653,17.1428571 37.6430192,19.0657143 40,22.0085714 L40,15.7142857 C40,14.9253075 39.3604508,14.2857143 38.5715268,14.2857143 Z" id="路径"></path>
                </g>
            </g>
        </g>
    </g>
</svg>