<?xml version="1.0" standalone="no"?><!DOCTYPE svg PUBLIC "-//W3C//DTD SVG 1.1//EN" "http://www.w3.org/Graphics/SVG/1.1/DTD/svg11.dtd"><svg t="1758701621327" class="icon" viewBox="0 0 1024 1024" version="1.1" xmlns="http://www.w3.org/2000/svg" p-id="5015" xmlns:xlink="http://www.w3.org/1999/xlink" width="200" height="200"><path d="M0 512c0 282.76736 229.23264 512 512 512s512-229.23264 512-512S794.76736 0 512 0 0 229.23264 0 512z" fill="#51C5FF" p-id="5016"></path><path d="M245.5552 400.4864A303.5136 303.5136 0 0 0 0.32768 524.92288C5.69344 741.31456 145.2032 924.38528 338.944 993.8944c122.24512-39.40352 210.71872-154.0096 210.71872-289.3824-0.06144-167.85408-136.192-304.04608-304.08704-304.04608z" fill="#7BE0FF" p-id="5017"></path><path d="M758.51776 274.04288H675.84v63.11936c0 11.8784-9.85088 21.8112-21.62688 21.8112a21.95456 21.95456 0 0 1-21.6064-21.8112v-63.11936H411.8528v63.11936c0 11.8784-9.85088 21.8112-21.6064 21.8112A21.95456 21.95456 0 0 1 368.64 337.16224v-63.11936h-82.67776A60.88704 60.88704 0 0 0 225.28 335.2576V757.9648C225.28 791.6544 252.2112 819.2 285.96224 819.2h472.55552A60.88704 60.88704 0 0 0 819.2 757.98528V335.2576c0-33.66912-27.29984-61.21472-60.68224-61.21472z" fill="#FFFFFF" p-id="5018"></path><path d="M663.69536 513.536l-152.84224 154.17344a26.624 26.624 0 0 1-18.944 8.02816 26.624 26.624 0 0 1-18.96448-8.02816l-92.16-92.9792a26.95168 26.95168 0 0 1 0-38.23616 26.39872 26.39872 0 0 1 37.90848 0L491.9296 610.304l133.48864-134.67648a26.39872 26.39872 0 0 1 37.92896 0c10.99776 10.3424 10.99776 27.17696 0.36864 37.888z" fill="#51C5FF" p-id="5019"></path><path d="M411.87328 226.6112c0-11.8784-9.85088-21.8112-21.6064-21.8112-11.776 0-21.62688 9.95328-21.62688 21.8112v30.208h43.23328v-30.208zM676.22912 226.6112c0-11.8784-9.87136-21.8112-21.62688-21.8112-11.75552 0-21.62688 9.95328-21.62688 21.8112v30.208h43.25376v-30.208z" fill="#7BE0FF" p-id="5020"></path></svg>