<?xml version="1.0" encoding="UTF-8"?>
<svg width="50px" height="50px" viewBox="0 0 50 50" version="1.1" xmlns="http://www.w3.org/2000/svg" xmlns:xlink="http://www.w3.org/1999/xlink">
    <title>gerenzhongxin 3</title>
    <g id="个人中心" stroke="none" stroke-width="1" fill="none" fill-rule="evenodd">
        <g id="个人中心-登录" transform="translate(-60, -736)" fill-rule="nonzero">
            <g id="编组-7" transform="translate(30, 487)">
                <g id="Group-10" transform="translate(30, 228)">
                    <g id="gerenzhongxin-2" transform="translate(0, 21)">
                        <g id="gerenzhongxin">
                            <path d="M0,25 C0,38.8071187 11.1928813,50 25,50 C38.8071187,50 50,38.8071187 50,25 C50,11.1928813 38.8071187,0 25,0 C11.1928813,0 0,11.1928813 0,25 Z" id="路径" fill="#8D8DFF"></path>
                            <path d="M11.9907627,19.5553055 C7.07306964,19.5553055 2.71494552,21.9475367 0.0148034107,25.6306253 C0.278304121,36.1972999 7.09083373,45.1355992 16.5502132,48.5315017 C22.5189484,46.6070583 26.8385836,41.011369 26.8385836,34.4001658 C26.8356229,26.2049976 20.1888915,19.5553055 11.9907627,19.5553055 Z" id="路径" fill="#A6A6FF"></path>
                        </g>
                        <g id="tuanti-2" transform="translate(8, 11)">
                            <g id="tuanti" transform="translate(0, 0)">
                                <path d="M13.3636364,7.63723886 C13.3636364,11.854087 16.7818517,15.2727273 21,15.2727273 C25.2181483,15.2727273 28.6363636,11.854087 28.6363636,7.63723886 C28.6363636,3.41864027 25.2181483,0 21,0 C16.7818517,0 13.3636364,3.41864027 13.3636364,7.63723886" id="路径" fill="#FFFFFF"></path>
                                <path d="M10.3775006,15.764655 C8.92802274,15.4584552 7.59263848,14.7573506 6.52050228,13.7396506 C2.5102283,15.8227902 -0.0029324098,19.952055 2.56789883e-06,24.4531951 C2.56789883e-06,25.027788 0.465504936,25.494427 1.03950468,25.494427 L5.22200285,25.494427 C5.73943793,21.7496286 7.56447464,18.3053072 10.3775006,15.764655 M11.4695001,7.73776725 C11.4695001,5.36452473 12.3252497,3.1915191 13.7409991,1.5043056 C13.1860361,1.35335953 12.6135689,1.2755025 12.0382499,1.27272727 C8.40000146,1.27272727 5.44250276,4.23623334 5.44250276,7.87880367 C5.44250276,11.5196328 8.40175146,14.4831389 12.0382499,14.4831389 C12.6997496,14.4831389 13.3367493,14.3821498 13.938749,14.201066 C12.3457386,12.4213912 11.4662419,10.1209246 11.4677501,7.73776725" id="形状" fill="#D7D7FF"></path>
                                <path d="M27.5012431,14.4831389 C23.9490824,17.8536451 18.3624094,17.8536451 14.8102487,14.4831389 C10.1985506,16.8785529 7.30738114,21.6259429 7.30800184,26.802061 C7.30800184,27.4637134 7.8435017,28 8.50325142,28 L33.8029903,28 C34.121383,27.9990778 34.4263668,27.8723483 34.650848,27.6476908 C34.8753293,27.4230334 35.0009194,27.118851 34.9999949,26.802061 C35.0012912,21.6267012 32.1115849,16.879499 27.5012431,14.4831389" id="路径" fill="#FFFFFF"></path>
                            </g>
                        </g>
                    </g>
                </g>
            </g>
        </g>
    </g>
</svg>